<svg width="256" height="256" viewBox="0 0 256 256" fill="none" xmlns="http://www.w3.org/2000/svg">
<g filter="url(#filter0_d)">
<path fill-rule="evenodd" clip-rule="evenodd" d="M163.207 2.20712L6.20718 159.207L4.79297 157.793L161.793 0.792908L163.207 2.20712Z" fill="#B31C55"/>
<path fill-rule="evenodd" clip-rule="evenodd" d="M251.707 89.7071L94.7072 246.707L93.293 245.293L250.293 88.2929L251.707 89.7071Z" fill="#B31C55"/>
<path fill-rule="evenodd" clip-rule="evenodd" d="M127.5 92C109.551 92 95 106.551 95 124.5C95 142.449 109.551 157 127.5 157C145.449 157 160 142.449 160 124.5C160 106.551 145.449 92 127.5 92ZM93 124.5C93 105.446 108.446 90 127.5 90C146.554 90 162 105.446 162 124.5C162 143.554 146.554 159 127.5 159C108.446 159 93 143.554 93 124.5Z" fill="#B31C55"/>
<path fill-rule="evenodd" clip-rule="evenodd" d="M92 88H249.5V90H94V244.5H92V88Z" fill="#B31C55"/>
<path fill-rule="evenodd" clip-rule="evenodd" d="M162.113 89C162.113 88.4477 162.56 88 163.113 88H166.042C166.594 88 167.042 88.4477 167.042 89C167.042 89.5523 166.594 90 166.042 90H163.113C162.56 90 162.113 89.5523 162.113 89ZM176.76 89C176.76 88.4477 177.208 88 177.76 88H183.62C184.172 88 184.62 88.4477 184.62 89C184.62 89.5523 184.172 90 183.62 90H177.76C177.208 90 176.76 89.5523 176.76 89ZM194.338 89C194.338 88.4477 194.786 88 195.338 88H201.197C201.749 88 202.197 88.4477 202.197 89C202.197 89.5523 201.749 90 201.197 90H195.338C194.786 90 194.338 89.5523 194.338 89ZM211.915 89C211.915 88.4477 212.363 88 212.915 88H218.775C219.327 88 219.775 88.4477 219.775 89C219.775 89.5523 219.327 90 218.775 90H212.915C212.363 90 211.915 89.5523 211.915 89ZM229.493 89C229.493 88.4477 229.941 88 230.493 88H236.352C236.904 88 237.352 88.4477 237.352 89C237.352 89.5523 236.904 90 236.352 90H230.493C229.941 90 229.493 89.5523 229.493 89ZM247.07 89C247.07 88.4477 247.518 88 248.07 88H252V91.9259C252 92.4782 251.552 92.9259 251 92.9259C250.448 92.9259 250 92.4782 250 91.9259V90H248.07C247.518 90 247.07 89.5523 247.07 89ZM251 102.63C251.552 102.63 252 103.077 252 103.63V109.481C252 110.034 251.552 110.481 251 110.481C250.448 110.481 250 110.034 250 109.481V103.63C250 103.077 250.448 102.63 251 102.63ZM251 120.185C251.552 120.185 252 120.633 252 121.185V127.037C252 127.589 251.552 128.037 251 128.037C250.448 128.037 250 127.589 250 127.037V121.185C250 120.633 250.448 120.185 251 120.185ZM251 137.741C251.552 137.741 252 138.188 252 138.741V144.593C252 145.145 251.552 145.593 251 145.593C250.448 145.593 250 145.145 250 144.593V138.741C250 138.188 250.448 137.741 251 137.741ZM251 155.296C251.552 155.296 252 155.744 252 156.296V162.148C252 162.7 251.552 163.148 251 163.148C250.448 163.148 250 162.7 250 162.148V156.296C250 155.744 250.448 155.296 251 155.296ZM93 158.113C93.5523 158.113 94 158.56 94 159.113V162.042C94 162.594 93.5523 163.042 93 163.042C92.4477 163.042 92 162.594 92 162.042V159.113C92 158.56 92.4477 158.113 93 158.113ZM93 172.76C93.5523 172.76 94 173.208 94 173.76V179.62C94 180.172 93.5523 180.62 93 180.62C92.4477 180.62 92 180.172 92 179.62V173.76C92 173.208 92.4477 172.76 93 172.76ZM251 172.852C251.552 172.852 252 173.3 252 173.852V179.704C252 180.256 251.552 180.704 251 180.704C250.448 180.704 250 180.256 250 179.704V173.852C250 173.3 250.448 172.852 251 172.852ZM93 190.338C93.5523 190.338 94 190.786 94 191.338V197.197C94 197.749 93.5523 198.197 93 198.197C92.4477 198.197 92 197.749 92 197.197V191.338C92 190.786 92.4477 190.338 93 190.338ZM251 190.407C251.552 190.407 252 190.855 252 191.407V197.259C252 197.812 251.552 198.259 251 198.259C250.448 198.259 250 197.812 250 197.259V191.407C250 190.855 250.448 190.407 251 190.407ZM93 207.915C93.5523 207.915 94 208.363 94 208.915V214.775C94 215.327 93.5523 215.775 93 215.775C92.4477 215.775 92 215.327 92 214.775V208.915C92 208.363 92.4477 207.915 93 207.915ZM251 207.963C251.552 207.963 252 208.411 252 208.963V214.815C252 215.367 251.552 215.815 251 215.815C250.448 215.815 250 215.367 250 214.815V208.963C250 208.411 250.448 207.963 251 207.963ZM93 225.493C93.5523 225.493 94 225.941 94 226.493V232.352C94 232.904 93.5523 233.352 93 233.352C92.4477 233.352 92 232.904 92 232.352V226.493C92 225.941 92.4477 225.493 93 225.493ZM251 225.519C251.552 225.519 252 225.966 252 226.519V232.37C252 232.923 251.552 233.37 251 233.37C250.448 233.37 250 232.923 250 232.37V226.519C250 225.966 250.448 225.519 251 225.519ZM93 243.07C93.5523 243.07 94 243.518 94 244.07V246H95.9259C96.4782 246 96.9259 246.448 96.9259 247C96.9259 247.552 96.4782 248 95.9259 248H92V244.07C92 243.518 92.4477 243.07 93 243.07ZM251 243.074C251.552 243.074 252 243.522 252 244.074V248H248.074C247.522 248 247.074 247.552 247.074 247C247.074 246.448 247.522 246 248.074 246H250V244.074C250 243.522 250.448 243.074 251 243.074ZM106.63 247C106.63 246.448 107.077 246 107.63 246H113.481C114.034 246 114.481 246.448 114.481 247C114.481 247.552 114.034 248 113.481 248H107.63C107.077 248 106.63 247.552 106.63 247ZM124.185 247C124.185 246.448 124.633 246 125.185 246H131.037C131.589 246 132.037 246.448 132.037 247C132.037 247.552 131.589 248 131.037 248H125.185C124.633 248 124.185 247.552 124.185 247ZM141.741 247C141.741 246.448 142.188 246 142.741 246H148.593C149.145 246 149.593 246.448 149.593 247C149.593 247.552 149.145 248 148.593 248H142.741C142.188 248 141.741 247.552 141.741 247ZM159.296 247C159.296 246.448 159.744 246 160.296 246H166.148C166.7 246 167.148 246.448 167.148 247C167.148 247.552 166.7 248 166.148 248H160.296C159.744 248 159.296 247.552 159.296 247ZM176.852 247C176.852 246.448 177.3 246 177.852 246H183.704C184.256 246 184.704 246.448 184.704 247C184.704 247.552 184.256 248 183.704 248H177.852C177.3 248 176.852 247.552 176.852 247ZM194.407 247C194.407 246.448 194.855 246 195.407 246H201.259C201.812 246 202.259 246.448 202.259 247C202.259 247.552 201.812 248 201.259 248H195.407C194.855 248 194.407 247.552 194.407 247ZM211.963 247C211.963 246.448 212.411 246 212.963 246H218.815C219.367 246 219.815 246.448 219.815 247C219.815 247.552 219.367 248 218.815 248H212.963C212.411 248 211.963 247.552 211.963 247ZM229.519 247C229.519 246.448 229.966 246 230.519 246H236.37C236.923 246 237.37 246.448 237.37 247C237.37 247.552 236.923 248 236.37 248H230.519C229.966 248 229.519 247.552 229.519 247Z" fill="#B31C55"/>
<path fill-rule="evenodd" clip-rule="evenodd" d="M162 158V1H164V160H5V158H162Z" fill="#B31C55"/>
<path fill-rule="evenodd" clip-rule="evenodd" d="M4 0H7.92593C8.47821 0 8.92593 0.447715 8.92593 1C8.92593 1.55228 8.47821 2 7.92593 2H6V3.92591C6 4.4782 5.55228 4.92591 5 4.92591C4.44772 4.92591 4 4.4782 4 3.92591V0ZM18.6296 1C18.6296 0.447715 19.0773 0 19.6296 0H25.4815C26.0338 0 26.4815 0.447715 26.4815 1C26.4815 1.55228 26.0338 2 25.4815 2H19.6296C19.0773 2 18.6296 1.55228 18.6296 1ZM36.1852 1C36.1852 0.447715 36.6329 0 37.1852 0H43.037C43.5893 0 44.037 0.447715 44.037 1C44.037 1.55228 43.5893 2 43.037 2H37.1852C36.6329 2 36.1852 1.55228 36.1852 1ZM53.7407 1C53.7407 0.447715 54.1885 0 54.7407 0H60.5926C61.1449 0 61.5926 0.447715 61.5926 1C61.5926 1.55228 61.1449 2 60.5926 2H54.7407C54.1885 2 53.7407 1.55228 53.7407 1ZM71.2963 1C71.2963 0.447715 71.744 0 72.2963 0H78.1481C78.7004 0 79.1481 0.447715 79.1481 1C79.1481 1.55228 78.7004 2 78.1481 2H72.2963C71.744 2 71.2963 1.55228 71.2963 1ZM88.8518 1C88.8518 0.447715 89.2996 0 89.8518 0H95.7037C96.256 0 96.7037 0.447715 96.7037 1C96.7037 1.55228 96.256 2 95.7037 2H89.8518C89.2996 2 88.8518 1.55228 88.8518 1ZM106.407 1C106.407 0.447715 106.855 0 107.407 0H113.259C113.812 0 114.259 0.447715 114.259 1C114.259 1.55228 113.812 2 113.259 2H107.407C106.855 2 106.407 1.55228 106.407 1ZM123.963 1C123.963 0.447715 124.411 0 124.963 0H130.815C131.367 0 131.815 0.447715 131.815 1C131.815 1.55228 131.367 2 130.815 2H124.963C124.411 2 123.963 1.55228 123.963 1ZM141.519 1C141.519 0.447715 141.966 0 142.519 0H148.37C148.923 0 149.37 0.447715 149.37 1C149.37 1.55228 148.923 2 148.37 2H142.519C141.966 2 141.519 1.55228 141.519 1ZM159.074 1C159.074 0.447715 159.522 0 160.074 0H163C163.552 0 164 0.447715 164 1C164 1.55228 163.552 2 163 2H160.074C159.522 2 159.074 1.55228 159.074 1ZM5 14.6296C5.55228 14.6296 6 15.0773 6 15.6296V21.4815C6 22.0338 5.55228 22.4815 5 22.4815C4.44772 22.4815 4 22.0338 4 21.4815V15.6296C4 15.0773 4.44772 14.6296 5 14.6296ZM5 32.1852C5.55228 32.1852 6 32.6329 6 33.1852V39.037C6 39.5893 5.55228 40.037 5 40.037C4.44772 40.037 4 39.5893 4 39.037V33.1852C4 32.6329 4.44772 32.1852 5 32.1852ZM5 49.7407C5.55228 49.7407 6 50.1885 6 50.7407V56.5926C6 57.1449 5.55228 57.5926 5 57.5926C4.44772 57.5926 4 57.1449 4 56.5926V50.7407C4 50.1885 4.44772 49.7407 5 49.7407ZM5 67.2963C5.55228 67.2963 6 67.744 6 68.2963V74.1482C6 74.7004 5.55228 75.1482 5 75.1482C4.44772 75.1482 4 74.7004 4 74.1482V68.2963C4 67.744 4.44772 67.2963 5 67.2963ZM5 84.8519C5.55228 84.8519 6 85.2996 6 85.8519V91.7037C6 92.256 5.55228 92.7037 5 92.7037C4.44772 92.7037 4 92.256 4 91.7037V85.8519C4 85.2996 4.44772 84.8519 5 84.8519ZM5 102.407C5.55228 102.407 6 102.855 6 103.407V109.259C6 109.812 5.55228 110.259 5 110.259C4.44772 110.259 4 109.812 4 109.259V103.407C4 102.855 4.44772 102.407 5 102.407ZM5 119.963C5.55228 119.963 6 120.411 6 120.963V126.815C6 127.367 5.55228 127.815 5 127.815C4.44772 127.815 4 127.367 4 126.815V120.963C4 120.411 4.44772 119.963 5 119.963ZM5 137.519C5.55228 137.519 6 137.966 6 138.519V144.37C6 144.923 5.55228 145.37 5 145.37C4.44772 145.37 4 144.923 4 144.37V138.519C4 137.966 4.44772 137.519 5 137.519ZM5 155.074C5.55228 155.074 6 155.522 6 156.074V159C6 159.552 5.55228 160 5 160C4.44772 160 4 159.552 4 159V156.074C4 155.522 4.44772 155.074 5 155.074Z" fill="#B31C55"/>
</g>
<defs>
<filter id="filter0_d" x="0" y="0" width="256" height="256" filterUnits="userSpaceOnUse" color-interpolation-filters="sRGB">
<feFlood flood-opacity="0" result="BackgroundImageFix"/>
<feColorMatrix in="SourceAlpha" type="matrix" values="0 0 0 0 0 0 0 0 0 0 0 0 0 0 0 0 0 0 127 0"/>
<feOffset dy="4"/>
<feGaussianBlur stdDeviation="2"/>
<feColorMatrix type="matrix" values="0 0 0 0 0 0 0 0 0 0 0 0 0 0 0 0 0 0 0.25 0"/>
<feBlend mode="normal" in2="BackgroundImageFix" result="effect1_dropShadow"/>
<feBlend mode="normal" in="SourceGraphic" in2="effect1_dropShadow" result="shape"/>
</filter>
</defs>
</svg>
