<svg width="250" height="250" viewBox="0 0 250 250" fill="none" xmlns="http://www.w3.org/2000/svg">
<path fill-rule="evenodd" clip-rule="evenodd" d="M118.865 0.147952C120.898 0.0496933 122.943 0 125 0C127.057 0 129.102 0.0496934 131.135 0.147953C131.687 0.174617 132.112 0.643427 132.086 1.19507C132.059 1.74671 131.59 2.17229 131.039 2.14562C129.038 2.04892 127.025 2 125 2C122.975 2 120.962 2.04891 118.961 2.14562C118.41 2.17228 117.941 1.74671 117.914 1.19507C117.888 0.643426 118.313 0.174617 118.865 0.147952ZM84.1542 7.88036C84.3403 8.40035 84.0696 8.97274 83.5496 9.15882C79.7426 10.5212 76.0223 12.0659 72.3993 13.7825C71.9002 14.019 71.3039 13.8061 71.0674 13.307C70.8309 12.8079 71.0439 12.2116 71.5429 11.9751C75.2252 10.2305 79.0064 8.66047 82.8757 7.27577C83.3957 7.08969 83.9681 7.36037 84.1542 7.88036ZM165.846 7.88036C166.032 7.36037 166.604 7.08969 167.124 7.27577C170.994 8.66047 174.775 10.2305 178.457 11.9751C178.956 12.2116 179.169 12.8079 178.933 13.307C178.696 13.8061 178.1 14.019 177.601 13.7825C173.978 12.0659 170.257 10.5212 166.45 9.15883C165.93 8.97274 165.66 8.40036 165.846 7.88036ZM42.4674 32.4491C42.8384 32.8582 42.8075 33.4906 42.3984 33.8616C39.4158 36.5665 36.5665 39.4158 33.8616 42.3984C33.4906 42.8075 32.8582 42.8384 32.4491 42.4674C32.04 42.0964 32.0091 41.464 32.3801 41.0548C35.1287 38.024 38.024 35.1287 41.0549 32.3801C41.464 32.0091 42.0964 32.04 42.4674 32.4491ZM207.533 32.4491C207.904 32.04 208.536 32.0091 208.945 32.3801C211.976 35.1287 214.871 38.024 217.62 41.0549C217.991 41.464 217.96 42.0964 217.551 42.4674C217.142 42.8384 216.509 42.8075 216.138 42.3984C213.434 39.4158 210.584 36.5665 207.602 33.8616C207.192 33.4906 207.162 32.8582 207.533 32.4491ZM13.307 71.0674C13.8061 71.3039 14.019 71.9002 13.7825 72.3993C12.0659 76.0223 10.5212 79.7426 9.15883 83.5496C8.97274 84.0696 8.40036 84.3403 7.88036 84.1542C7.36037 83.9681 7.08969 83.3957 7.27577 82.8757C8.66047 79.0064 10.2305 75.2252 11.9751 71.5429C12.2116 71.0438 12.8079 70.8309 13.307 71.0674ZM236.693 71.0674C237.192 70.8309 237.788 71.0439 238.025 71.5429C239.77 75.2252 241.34 79.0064 242.724 82.8757C242.91 83.3957 242.64 83.9681 242.12 84.1542C241.6 84.3403 241.027 84.0696 240.841 83.5496C239.479 79.7426 237.934 76.0223 236.217 72.3993C235.981 71.9002 236.194 71.3039 236.693 71.0674ZM1.19507 117.914C1.74671 117.941 2.17229 118.41 2.14562 118.961C2.04892 120.962 2 122.975 2 125C2 127.025 2.04891 129.038 2.14562 131.039C2.17228 131.59 1.74671 132.059 1.19507 132.086C0.643426 132.112 0.174617 131.687 0.147952 131.135C0.0496933 129.102 0 127.057 0 125C0 122.943 0.0496934 120.898 0.147953 118.865C0.174617 118.313 0.643427 117.888 1.19507 117.914ZM248.805 117.914C249.357 117.888 249.825 118.313 249.852 118.865C249.95 120.898 250 122.943 250 125C250 127.057 249.95 129.102 249.852 131.135C249.825 131.687 249.357 132.112 248.805 132.086C248.253 132.059 247.828 131.59 247.854 131.039C247.951 129.038 248 127.025 248 125C248 122.975 247.951 120.962 247.854 118.961C247.828 118.41 248.253 117.941 248.805 117.914ZM7.88036 165.846C8.40035 165.66 8.97274 165.93 9.15882 166.45C10.5212 170.257 12.0659 173.978 13.7825 177.601C14.019 178.1 13.8061 178.696 13.307 178.933C12.8079 179.169 12.2116 178.956 11.9751 178.457C10.2305 174.775 8.66047 170.994 7.27577 167.124C7.08969 166.604 7.36037 166.032 7.88036 165.846ZM242.12 165.846C242.64 166.032 242.91 166.604 242.724 167.124C241.34 170.994 239.77 174.775 238.025 178.457C237.788 178.956 237.192 179.169 236.693 178.933C236.194 178.696 235.981 178.1 236.217 177.601C237.934 173.978 239.479 170.257 240.841 166.45C241.027 165.93 241.6 165.66 242.12 165.846ZM32.4491 207.533C32.8582 207.162 33.4906 207.192 33.8616 207.602C36.5665 210.584 39.4158 213.433 42.3984 216.138C42.8075 216.509 42.8384 217.142 42.4674 217.551C42.0964 217.96 41.464 217.991 41.0548 217.62C38.024 214.871 35.1287 211.976 32.3801 208.945C32.0091 208.536 32.04 207.904 32.4491 207.533ZM217.551 207.533C217.96 207.904 217.991 208.536 217.62 208.945C214.871 211.976 211.976 214.871 208.945 217.62C208.536 217.991 207.904 217.96 207.533 217.551C207.162 217.142 207.192 216.509 207.602 216.138C210.584 213.434 213.433 210.584 216.138 207.602C216.509 207.192 217.142 207.162 217.551 207.533ZM71.0674 236.693C71.3039 236.194 71.9002 235.981 72.3993 236.217C76.0223 237.934 79.7426 239.479 83.5496 240.841C84.0696 241.027 84.3403 241.6 84.1542 242.12C83.9681 242.64 83.3957 242.91 82.8757 242.724C79.0064 241.34 75.2252 239.77 71.5429 238.025C71.0438 237.788 70.8309 237.192 71.0674 236.693ZM178.933 236.693C179.169 237.192 178.956 237.788 178.457 238.025C174.775 239.77 170.994 241.34 167.124 242.724C166.604 242.91 166.032 242.64 165.846 242.12C165.66 241.6 165.93 241.027 166.45 240.841C170.257 239.479 173.978 237.934 177.601 236.217C178.1 235.981 178.696 236.194 178.933 236.693ZM117.914 248.805C117.941 248.253 118.41 247.828 118.961 247.854C120.962 247.951 122.975 248 125 248C127.025 248 129.038 247.951 131.039 247.854C131.59 247.828 132.059 248.253 132.086 248.805C132.112 249.357 131.687 249.825 131.135 249.852C129.102 249.95 127.057 250 125 250C122.943 250 120.898 249.95 118.865 249.852C118.313 249.825 117.888 249.357 117.914 248.805Z" fill="#04D35A"/>
<path fill-rule="evenodd" clip-rule="evenodd" d="M123.469 24.0114C123.978 24.0038 124.489 24 125 24C125.511 24 126.022 24.0038 126.531 24.0114C127.084 24.0196 127.525 24.4739 127.516 25.0261C127.508 25.5784 127.054 26.0194 126.502 26.0112C126.002 26.0037 125.501 26 125 26C124.499 26 123.998 26.0037 123.498 26.0112C122.946 26.0194 122.492 25.5784 122.484 25.0261C122.475 24.4739 122.916 24.0196 123.469 24.0114ZM112.431 25.7772C112.506 26.3245 112.122 26.8283 111.575 26.9025C108.923 27.2619 106.305 27.7263 103.725 28.2914C103.185 28.4095 102.652 28.0679 102.534 27.5284C102.416 26.9889 102.757 26.4558 103.297 26.3377C105.93 25.7611 108.601 25.2873 111.306 24.9206C111.853 24.8464 112.357 25.2299 112.431 25.7772ZM141.555 26.3588C141.651 25.815 142.17 25.4521 142.713 25.5483C145.399 26.0235 148.049 26.6048 150.657 27.2878C151.191 27.4277 151.511 27.9742 151.371 28.5085C151.231 29.0428 150.684 29.3625 150.15 29.2226C147.594 28.5532 144.997 27.9835 142.365 27.5177C141.821 27.4215 141.458 26.9026 141.555 26.3588ZM89.0491 31.6516C89.2529 32.1649 89.0019 32.7462 88.4886 32.95C87.5612 33.3182 86.6408 33.6999 85.7274 34.0951C85.2205 34.3143 84.6318 34.0812 84.4125 33.5743C84.1932 33.0674 84.4264 32.4787 84.9333 32.2595C85.8652 31.8563 86.8044 31.4668 87.7507 31.0911C88.264 30.8873 88.8453 31.1383 89.0491 31.6516ZM160.951 31.6516C161.155 31.1383 161.736 30.8873 162.249 31.0911C163.196 31.4668 164.135 31.8563 165.067 32.2595C165.574 32.4788 165.807 33.0674 165.587 33.5743C165.368 34.0812 164.78 34.3144 164.273 34.0951C163.359 33.6999 162.439 33.3182 161.511 32.95C160.998 32.7462 160.747 32.1649 160.951 31.6516ZM75.42 38.1309C75.699 38.6075 75.5388 39.2201 75.0621 39.499C72.7636 40.8444 70.5242 42.2799 68.3487 43.8006C67.896 44.117 67.2726 44.0065 66.9562 43.5539C66.6398 43.1012 66.7502 42.4777 67.2029 42.1613C69.4222 40.61 71.7068 39.1456 74.0518 37.773C74.5284 37.494 75.141 37.6542 75.42 38.1309ZM178.035 40.2008C178.333 39.7358 178.952 39.6004 179.417 39.8983C181.704 41.3637 183.928 42.9186 186.084 44.5582C186.523 44.8925 186.609 45.5199 186.274 45.9595C185.94 46.3991 185.313 46.4844 184.873 46.1501C182.76 44.5429 180.58 43.0186 178.338 41.5823C177.873 41.2844 177.738 40.6658 178.035 40.2008ZM56.083 52.5329C56.4676 52.9292 56.4581 53.5623 56.0618 53.9469C55.3463 54.6413 54.6413 55.3463 53.947 56.0618C53.5623 56.4581 52.9292 56.4676 52.5329 56.083C52.1366 55.6984 52.1271 55.0653 52.5117 54.669C53.2199 53.9391 53.9391 53.2199 54.669 52.5117C55.0653 52.127 55.6984 52.1365 56.083 52.5329ZM193.917 52.5329C194.302 52.1366 194.935 52.1271 195.331 52.5117C196.061 53.2199 196.78 53.9391 197.488 54.669C197.873 55.0653 197.863 55.6984 197.467 56.083C197.071 56.4676 196.438 56.4581 196.053 56.0618C195.359 55.3463 194.654 54.6413 193.938 53.947C193.542 53.5623 193.532 52.9292 193.917 52.5329ZM45.9595 63.7258C46.3991 64.0601 46.4844 64.6875 46.1501 65.1271C44.5429 67.2405 43.0186 69.4204 41.5823 71.662C41.2844 72.127 40.6658 72.2625 40.2008 71.9645C39.7358 71.6666 39.6004 71.048 39.8983 70.583C41.3637 68.2962 42.9186 66.0723 44.5582 63.9164C44.8925 63.4768 45.5199 63.3914 45.9595 63.7258ZM206.446 66.9562C206.899 66.6398 207.522 66.7502 207.839 67.2029C209.39 69.4222 210.854 71.7068 212.227 74.0518C212.506 74.5284 212.346 75.141 211.869 75.42C211.393 75.699 210.78 75.5388 210.501 75.0621C209.156 72.7636 207.72 70.5242 206.199 68.3487C205.883 67.896 205.993 67.2726 206.446 66.9562ZM33.5743 84.4125C34.0812 84.6318 34.3144 85.2205 34.0951 85.7274C33.6999 86.6407 33.3182 87.5612 32.95 88.4886C32.7462 89.0019 32.1649 89.2529 31.6516 89.0491C31.1383 88.8453 30.8873 88.264 31.0911 87.7507C31.4668 86.8044 31.8563 85.8652 32.2595 84.9333C32.4788 84.4264 33.0674 84.1932 33.5743 84.4125ZM216.426 84.4125C216.933 84.1932 217.521 84.4264 217.741 84.9333C218.144 85.8652 218.533 86.8044 218.909 87.7507C219.113 88.264 218.862 88.8453 218.348 89.0491C217.835 89.2529 217.254 89.0019 217.05 88.4886C216.682 87.5612 216.3 86.6408 215.905 85.7274C215.686 85.2205 215.919 84.6318 216.426 84.4125ZM28.5085 98.6292C29.0428 98.7691 29.3625 99.3156 29.2226 99.8499C28.5532 102.406 27.9835 105.003 27.5177 107.635C27.4215 108.179 26.9026 108.542 26.3588 108.445C25.815 108.349 25.4521 107.83 25.5483 107.287C26.0235 104.601 26.6048 101.951 27.2878 99.3432C27.4277 98.809 27.9742 98.4893 28.5085 98.6292ZM222.472 102.534C223.011 102.416 223.544 102.757 223.662 103.297C224.239 105.93 224.713 108.601 225.079 111.306C225.154 111.853 224.77 112.357 224.223 112.431C223.676 112.506 223.172 112.122 223.098 111.575C222.738 108.923 222.274 106.305 221.709 103.725C221.59 103.185 221.932 102.652 222.472 102.534ZM25.0261 122.484C25.5784 122.492 26.0194 122.946 26.0112 123.498C26.0037 123.998 26 124.499 26 125C26 125.501 26.0037 126.002 26.0112 126.502C26.0194 127.054 25.5784 127.508 25.0261 127.516C24.4739 127.525 24.0196 127.084 24.0114 126.531C24.0038 126.022 24 125.511 24 125C24 124.489 24.0038 123.978 24.0114 123.469C24.0196 122.916 24.4739 122.475 25.0261 122.484ZM224.974 122.484C225.526 122.475 225.98 122.916 225.989 123.469C225.996 123.978 226 124.489 226 125C226 125.511 225.996 126.022 225.989 126.531C225.98 127.084 225.526 127.525 224.974 127.516C224.422 127.508 223.981 127.054 223.989 126.502C223.996 126.002 224 125.501 224 125C224 124.499 223.996 123.998 223.989 123.498C223.981 122.946 224.422 122.492 224.974 122.484ZM25.7772 137.569C26.3245 137.494 26.8283 137.878 26.9025 138.425C27.2619 141.077 27.7263 143.695 28.2914 146.275C28.4095 146.815 28.0679 147.348 27.5284 147.466C26.9889 147.584 26.4558 147.243 26.3377 146.703C25.7611 144.07 25.2873 141.399 24.9206 138.694C24.8464 138.147 25.2299 137.643 25.7772 137.569ZM223.641 141.555C224.185 141.651 224.548 142.17 224.452 142.713C223.977 145.399 223.395 148.049 222.712 150.657C222.572 151.191 222.026 151.511 221.492 151.371C220.957 151.231 220.638 150.684 220.777 150.15C221.447 147.594 222.017 144.997 222.482 142.365C222.578 141.821 223.097 141.458 223.641 141.555ZM31.6516 160.951C32.1649 160.747 32.7462 160.998 32.95 161.511C33.3182 162.439 33.6999 163.359 34.0951 164.273C34.3143 164.78 34.0812 165.368 33.5743 165.587C33.0674 165.807 32.4787 165.574 32.2595 165.067C31.8563 164.135 31.4668 163.196 31.0911 162.249C30.8873 161.736 31.1383 161.155 31.6516 160.951ZM218.348 160.951C218.862 161.155 219.113 161.736 218.909 162.249C218.533 163.196 218.144 164.135 217.741 165.067C217.521 165.574 216.933 165.807 216.426 165.587C215.919 165.368 215.686 164.78 215.905 164.273C216.3 163.359 216.682 162.439 217.05 161.511C217.254 160.998 217.835 160.747 218.348 160.951ZM38.1309 174.58C38.6075 174.301 39.2201 174.461 39.499 174.938C40.8444 177.236 42.2799 179.476 43.8006 181.651C44.117 182.104 44.0065 182.727 43.5539 183.044C43.1012 183.36 42.4777 183.25 42.1613 182.797C40.61 180.578 39.1456 178.293 37.773 175.948C37.494 175.472 37.6542 174.859 38.1309 174.58ZM209.799 178.035C210.264 178.333 210.4 178.952 210.102 179.417C208.636 181.704 207.081 183.928 205.442 186.084C205.107 186.523 204.48 186.609 204.04 186.274C203.601 185.94 203.516 185.313 203.85 184.873C205.457 182.76 206.981 180.58 208.418 178.338C208.716 177.873 209.334 177.738 209.799 178.035ZM52.5329 193.917C52.9292 193.532 53.5623 193.542 53.9469 193.938C54.6413 194.654 55.3463 195.359 56.0618 196.053C56.4581 196.438 56.4676 197.071 56.083 197.467C55.6984 197.863 55.0653 197.873 54.669 197.488C53.9391 196.78 53.2199 196.061 52.5117 195.331C52.127 194.935 52.1365 194.302 52.5329 193.917ZM197.467 193.917C197.863 194.302 197.873 194.935 197.488 195.331C196.78 196.061 196.061 196.78 195.331 197.488C194.935 197.873 194.302 197.863 193.917 197.467C193.532 197.071 193.542 196.438 193.938 196.053C194.654 195.359 195.359 194.654 196.053 193.938C196.438 193.542 197.071 193.532 197.467 193.917ZM63.7258 204.04C64.0601 203.601 64.6875 203.516 65.1271 203.85C67.2405 205.457 69.4204 206.981 71.662 208.418C72.127 208.716 72.2625 209.334 71.9645 209.799C71.6666 210.264 71.048 210.4 70.583 210.102C68.2962 208.636 66.0723 207.081 63.9164 205.442C63.4768 205.107 63.3914 204.48 63.7258 204.04ZM183.044 206.446C183.36 206.899 183.25 207.522 182.797 207.839C180.578 209.39 178.293 210.854 175.948 212.227C175.472 212.506 174.859 212.346 174.58 211.869C174.301 211.393 174.461 210.78 174.938 210.501C177.236 209.156 179.476 207.72 181.651 206.199C182.104 205.883 182.727 205.993 183.044 206.446ZM84.4125 216.426C84.6318 215.919 85.2205 215.686 85.7274 215.905C86.6407 216.3 87.5612 216.682 88.4886 217.05C89.0019 217.254 89.2529 217.835 89.0491 218.348C88.8453 218.862 88.264 219.113 87.7507 218.909C86.8044 218.533 85.8652 218.144 84.9333 217.741C84.4264 217.521 84.1932 216.933 84.4125 216.426ZM165.587 216.426C165.807 216.933 165.574 217.521 165.067 217.741C164.135 218.144 163.196 218.533 162.249 218.909C161.736 219.113 161.155 218.862 160.951 218.348C160.747 217.835 160.998 217.254 161.511 217.05C162.439 216.682 163.359 216.3 164.273 215.905C164.78 215.686 165.368 215.919 165.587 216.426ZM98.6292 221.492C98.7691 220.957 99.3156 220.638 99.8499 220.777C102.406 221.447 105.003 222.017 107.635 222.482C108.179 222.578 108.542 223.097 108.445 223.641C108.349 224.185 107.83 224.548 107.287 224.452C104.601 223.977 101.951 223.395 99.3432 222.712C98.809 222.572 98.4893 222.026 98.6292 221.492ZM147.466 222.472C147.584 223.011 147.243 223.544 146.703 223.662C144.07 224.239 141.399 224.713 138.694 225.079C138.147 225.154 137.643 224.77 137.569 224.223C137.494 223.676 137.878 223.172 138.425 223.098C141.077 222.738 143.695 222.274 146.275 221.709C146.815 221.59 147.348 221.932 147.466 222.472ZM122.484 224.974C122.492 224.422 122.946 223.981 123.498 223.989C123.998 223.996 124.499 224 125 224C125.501 224 126.002 223.996 126.502 223.989C127.054 223.981 127.508 224.422 127.516 224.974C127.525 225.526 127.084 225.98 126.531 225.989C126.022 225.996 125.511 226 125 226C124.489 226 123.978 225.996 123.469 225.989C122.916 225.98 122.475 225.526 122.484 224.974Z" fill="#04D35A"/>
<path fill-rule="evenodd" clip-rule="evenodd" d="M125 50C83.5786 50 50 83.5786 50 125C50 166.421 83.5786 200 125 200C166.421 200 200 166.421 200 125C200 83.5786 166.421 50 125 50ZM48 125C48 82.4741 82.4741 48 125 48C167.526 48 202 82.4741 202 125C202 167.526 167.526 202 125 202C82.4741 202 48 167.526 48 125Z" fill="#04D35A"/>
<path fill-rule="evenodd" clip-rule="evenodd" d="M125 106C114.507 106 106 114.507 106 125C106 135.493 114.507 144 125 144C135.493 144 144 135.493 144 125C144 114.507 135.493 106 125 106ZM104 125C104 113.402 113.402 104 125 104C136.598 104 146 113.402 146 125C146 136.598 136.598 146 125 146C113.402 146 104 136.598 104 125Z" fill="#04D35A"/>
</svg>
