<svg width="247" height="246" viewBox="0 0 247 246" fill="none" xmlns="http://www.w3.org/2000/svg">
<path fill-rule="evenodd" clip-rule="evenodd" d="M36 34.5C36 52.4493 50.5507 67 68.5 67C86.4493 67 101 52.4493 101 34.5H103C103 53.5538 87.5538 69 68.5 69C49.4462 69 34 53.5538 34 34.5H36Z" fill="#9ED317"/>
<path fill-rule="evenodd" clip-rule="evenodd" d="M68.5 2C67.5786 2 66.6664 2.03832 65.7648 2.11341C65.2145 2.15925 64.7311 1.75024 64.6853 1.19987C64.6394 0.649487 65.0485 0.166154 65.5988 0.120312C66.5555 0.0406249 67.5231 0 68.5 0C69.4769 0 70.4445 0.0406249 71.4012 0.120312C71.9515 0.166154 72.3606 0.649487 72.3147 1.19987C72.2689 1.75024 71.7855 2.15925 71.2352 2.11341C70.3336 2.03832 69.4214 2 68.5 2ZM59.2764 2.27018C59.444 2.79642 59.1532 3.35889 58.627 3.52648C56.8759 4.08416 55.1891 4.7863 53.5806 5.61896C53.0901 5.87286 52.4867 5.68108 52.2328 5.19062C51.9789 4.70015 52.1707 4.09673 52.6611 3.84283C54.369 2.95875 56.1603 2.21309 58.0201 1.62079C58.5463 1.4532 59.1088 1.74394 59.2764 2.27018ZM77.7236 2.27018C77.8912 1.74394 78.4537 1.4532 78.9799 1.62079C80.8397 2.21309 82.631 2.95875 84.3389 3.84284C84.8293 4.09673 85.0211 4.70015 84.7672 5.19062C84.5133 5.68108 83.9099 5.87286 83.4194 5.61896C81.8109 4.7863 80.1241 4.08416 78.373 3.52648C77.8468 3.35889 77.556 2.79642 77.7236 2.27018ZM47.6502 8.25848C48.0067 8.68027 47.9538 9.31122 47.532 9.66775C46.1386 10.8456 44.8456 12.1386 43.6677 13.532C43.3112 13.9538 42.6803 14.0067 42.2585 13.6502C41.8367 13.2937 41.7838 12.6627 42.1403 12.2409C43.3902 10.7622 44.7622 9.39019 46.2409 8.14031C46.6627 7.78378 47.2937 7.83669 47.6502 8.25848ZM89.3498 8.25848C89.7063 7.83669 90.3373 7.78378 90.7591 8.14031C92.2378 9.39019 93.6098 10.7622 94.8597 12.2409C95.2162 12.6627 95.1633 13.2937 94.7415 13.6502C94.3197 14.0067 93.6888 13.9538 93.3323 13.532C92.1544 12.1386 90.8614 10.8456 89.468 9.66775C89.0462 9.31122 88.9933 8.68027 89.3498 8.25848ZM39.1906 18.2328C39.6811 18.4867 39.8729 19.0901 39.619 19.5806C38.7863 21.1891 38.0842 22.8759 37.5265 24.627C37.3589 25.1532 36.7964 25.444 36.2702 25.2764C35.7439 25.1088 35.4532 24.5463 35.6208 24.0201C36.2131 22.1603 36.9588 20.369 37.8428 18.6611C38.0967 18.1707 38.7002 17.9789 39.1906 18.2328ZM97.8094 18.2328C98.2998 17.9789 98.9033 18.1707 99.1572 18.6611C100.041 20.369 100.787 22.1603 101.379 24.0201C101.547 24.5463 101.256 25.1088 100.73 25.2764C100.204 25.444 99.6411 25.1532 99.4735 24.627C98.9158 22.8759 98.2137 21.1891 97.381 19.5806C97.1271 19.0901 97.3189 18.4867 97.8094 18.2328ZM101.8 30.6853C102.351 30.6394 102.834 31.0485 102.88 31.5988C102.959 32.5555 103 33.5231 103 34.5C103 35.0523 102.552 35.5 102 35.5C101.448 35.5 101 35.0523 101 34.5C101 33.5786 100.962 32.6664 100.887 31.7648C100.841 31.2145 101.25 30.7311 101.8 30.6853ZM35.1999 30.6853C35.7502 30.7311 36.1593 31.2145 36.1134 31.7648C36.0383 32.6664 36 33.5786 36 34.5C36 35.0523 35.5523 35.5 35 35.5C34.4477 35.5 34 35.0523 34 34.5C34 33.5231 34.0406 32.5555 34.1203 31.5988C34.1662 31.0485 34.6495 30.6394 35.1999 30.6853Z" fill="#9ED317"/>
<path fill-rule="evenodd" clip-rule="evenodd" d="M179 37H36V178H179V37ZM34 35V180H181V35H34Z" fill="#9ED317"/>
<path fill-rule="evenodd" clip-rule="evenodd" d="M181 116C145.654 116 117 144.654 117 180H115C115 143.549 144.549 114 181 114V116Z" fill="#9ED317"/>
<path fill-rule="evenodd" clip-rule="evenodd" d="M180 115C180 114.448 180.448 114 181 114C182.064 114 183.122 114.025 184.173 114.075C184.725 114.101 185.151 114.569 185.125 115.121C185.099 115.673 184.63 116.099 184.079 116.073C183.059 116.024 182.032 116 181 116C180.448 116 180 115.552 180 115ZM191.422 115.823C191.519 115.279 192.038 114.917 192.581 115.013C194.68 115.384 196.744 115.855 198.769 116.42C199.301 116.568 199.612 117.12 199.464 117.652C199.315 118.184 198.764 118.495 198.232 118.346C196.269 117.799 194.267 117.342 192.233 116.982C191.689 116.886 191.326 116.367 191.422 115.823ZM205.44 119.743C205.656 119.235 206.243 118.997 206.751 119.213C208.707 120.042 210.614 120.963 212.467 121.97C212.952 122.234 213.132 122.841 212.868 123.326C212.605 123.812 211.998 123.991 211.512 123.728C209.715 122.751 207.866 121.858 205.971 121.054C205.462 120.838 205.225 120.251 205.44 119.743ZM218.229 126.702C218.553 126.254 219.178 126.153 219.625 126.477C221.342 127.718 222.997 129.04 224.584 130.436C224.998 130.801 225.039 131.433 224.674 131.848C224.309 132.262 223.677 132.302 223.262 131.938C221.723 130.583 220.119 129.301 218.454 128.098C218.006 127.774 217.906 127.149 218.229 126.702ZM229.152 136.326C229.567 135.961 230.199 136.002 230.564 136.416C231.96 138.003 233.282 139.658 234.523 141.375C234.847 141.822 234.746 142.447 234.298 142.771C233.851 143.094 233.226 142.994 232.902 142.546C231.699 140.881 230.417 139.277 229.062 137.738C228.698 137.323 228.738 136.691 229.152 136.326ZM237.674 148.132C238.159 147.868 238.766 148.048 239.03 148.533C240.037 150.386 240.958 152.293 241.787 154.249C242.003 154.757 241.765 155.344 241.257 155.56C240.749 155.775 240.162 155.538 239.946 155.029C239.142 153.134 238.249 151.285 237.272 149.488C237.009 149.002 237.188 148.395 237.674 148.132ZM243.348 161.536C243.88 161.388 244.432 161.699 244.58 162.231C245.145 164.256 245.616 166.32 245.987 168.419C246.083 168.962 245.721 169.481 245.177 169.578C244.633 169.674 244.114 169.311 244.018 168.767C243.658 166.733 243.201 164.731 242.654 162.768C242.505 162.236 242.816 161.685 243.348 161.536ZM245.879 175.875C246.431 175.849 246.899 176.275 246.925 176.827C246.975 177.878 247 178.936 247 180C247 181.064 246.975 182.122 246.925 183.173C246.899 183.725 246.431 184.151 245.879 184.125C245.327 184.099 244.901 183.63 244.927 183.079C244.976 182.059 245 181.032 245 180C245 178.968 244.976 177.941 244.927 176.921C244.901 176.37 245.327 175.901 245.879 175.875ZM116 179C116.552 179 117 179.448 117 180C117 181.032 117.024 182.059 117.073 183.079C117.099 183.63 116.673 184.099 116.121 184.125C115.569 184.151 115.101 183.725 115.075 183.173C115.025 182.122 115 181.064 115 180C115 179.448 115.448 179 116 179ZM116.823 190.422C117.367 190.326 117.886 190.689 117.982 191.233C118.342 193.267 118.799 195.269 119.346 197.232C119.495 197.764 119.184 198.315 118.652 198.464C118.12 198.612 117.568 198.301 117.42 197.769C116.855 195.744 116.384 193.68 116.013 191.581C115.917 191.038 116.279 190.519 116.823 190.422ZM245.177 190.422C245.721 190.519 246.083 191.038 245.987 191.581C245.616 193.68 245.145 195.744 244.58 197.769C244.432 198.301 243.88 198.612 243.348 198.464C242.816 198.315 242.505 197.764 242.654 197.232C243.201 195.269 243.658 193.267 244.018 191.233C244.114 190.689 244.633 190.326 245.177 190.422ZM120.743 204.44C121.251 204.225 121.838 204.462 122.054 204.97C122.858 206.866 123.751 208.715 124.728 210.512C124.991 210.997 124.812 211.605 124.326 211.868C123.841 212.132 123.234 211.952 122.97 211.467C121.963 209.614 121.042 207.707 120.213 205.751C119.997 205.243 120.235 204.656 120.743 204.44ZM241.257 204.44C241.765 204.656 242.003 205.243 241.787 205.751C240.958 207.707 240.037 209.614 239.03 211.467C238.766 211.952 238.159 212.132 237.674 211.868C237.188 211.605 237.009 210.998 237.272 210.512C238.249 208.715 239.142 206.866 239.946 204.971C240.162 204.462 240.749 204.225 241.257 204.44ZM127.702 217.229C128.149 216.906 128.774 217.006 129.098 217.454C130.301 219.119 131.583 220.723 132.938 222.262C133.302 222.677 133.262 223.309 132.848 223.674C132.433 224.039 131.801 223.998 131.436 223.584C130.04 221.997 128.718 220.342 127.477 218.625C127.153 218.178 127.254 217.553 127.702 217.229ZM234.298 217.229C234.746 217.553 234.847 218.178 234.523 218.625C233.282 220.342 231.96 221.997 230.564 223.584C230.199 223.998 229.567 224.039 229.152 223.674C228.738 223.309 228.698 222.677 229.062 222.262C230.417 220.723 231.699 219.119 232.902 217.454C233.226 217.006 233.851 216.906 234.298 217.229ZM137.326 228.152C137.691 227.738 138.323 227.698 138.738 228.062C140.277 229.417 141.881 230.699 143.546 231.902C143.994 232.226 144.094 232.851 143.771 233.298C143.447 233.746 142.822 233.847 142.375 233.523C140.658 232.282 139.003 230.96 137.416 229.564C137.002 229.199 136.961 228.567 137.326 228.152ZM224.674 228.152C225.039 228.567 224.998 229.199 224.584 229.564C222.997 230.96 221.342 232.282 219.625 233.523C219.178 233.847 218.553 233.746 218.229 233.298C217.906 232.851 218.006 232.226 218.454 231.902C220.119 230.699 221.723 229.417 223.262 228.062C223.677 227.698 224.309 227.738 224.674 228.152ZM149.132 236.674C149.395 236.188 150.002 236.009 150.488 236.272C152.285 237.249 154.134 238.142 156.029 238.946C156.538 239.162 156.775 239.749 156.56 240.257C156.344 240.765 155.757 241.003 155.249 240.787C153.293 239.958 151.386 239.037 149.533 238.03C149.048 237.766 148.868 237.159 149.132 236.674ZM212.868 236.674C213.132 237.159 212.952 237.766 212.467 238.03C210.614 239.037 208.707 239.958 206.751 240.787C206.243 241.003 205.656 240.765 205.44 240.257C205.225 239.749 205.462 239.162 205.97 238.946C207.866 238.142 209.715 237.249 211.512 236.272C211.997 236.009 212.605 236.188 212.868 236.674ZM162.536 242.348C162.685 241.816 163.236 241.505 163.768 241.654C165.731 242.201 167.733 242.658 169.767 243.018C170.311 243.114 170.674 243.633 170.578 244.177C170.481 244.721 169.962 245.083 169.419 244.987C167.32 244.616 165.256 244.145 163.231 243.58C162.699 243.432 162.388 242.88 162.536 242.348ZM199.464 242.348C199.612 242.88 199.301 243.432 198.769 243.58C196.744 244.145 194.68 244.616 192.581 244.987C192.038 245.083 191.519 244.721 191.422 244.177C191.326 243.633 191.689 243.114 192.233 243.018C194.267 242.658 196.269 242.201 198.232 241.654C198.764 241.505 199.315 241.816 199.464 242.348ZM176.875 244.879C176.901 244.327 177.37 243.901 177.921 243.927C178.941 243.976 179.968 244 181 244C182.032 244 183.059 243.976 184.079 243.927C184.63 243.901 185.099 244.327 185.125 244.879C185.151 245.431 184.725 245.899 184.173 245.925C183.122 245.975 182.064 246 181 246C179.936 246 178.878 245.975 177.827 245.925C177.275 245.899 176.849 245.431 176.875 244.879Z" fill="#9ED317"/>
<path fill-rule="evenodd" clip-rule="evenodd" d="M69 142H2V209H69V142ZM0 140V211H71V140H0Z" fill="#9ED317"/>
</svg>
